<svg xmlns="http://www.w3.org/2000/svg" width="22" height="22" viewBox="0 0 22 22">
    <path fill="#FFF" fill-rule="evenodd" d="M20.46 5.7a10.967 10.967 0 0 0-3.976-4.041C14.81.666 12.982.17 11 .17c-1.982 0-3.81.496-5.484 1.489-1.674.993-3 2.34-3.976 4.04C.563 7.4.075 9.257.075 11.271c0 2.42.694 4.595 2.084 6.527 1.389 1.932 3.184 3.269 5.384 4.01.256.049.446.015.569-.1a.57.57 0 0 0 .185-.434l-.007-.78c-.005-.492-.008-.92-.008-1.287l-.327.058a4.097 4.097 0 0 1-.79.05 5.923 5.923 0 0 1-.988-.1 2.195 2.195 0 0 1-.953-.434 1.834 1.834 0 0 1-.626-.889l-.142-.333a3.624 3.624 0 0 0-.448-.737c-.204-.27-.41-.453-.619-.549l-.1-.072a1.054 1.054 0 0 1-.184-.174.794.794 0 0 1-.128-.202c-.029-.068-.005-.123.07-.167.077-.043.214-.064.413-.064l.285.043c.19.038.424.154.704.347.28.192.51.443.69.751.218.395.481.696.79.904.307.207.618.31.931.31.313 0 .583-.024.81-.072.228-.048.442-.12.64-.217.086-.645.319-1.142.698-1.489a9.625 9.625 0 0 1-1.458-.26 5.751 5.751 0 0 1-1.337-.564 3.846 3.846 0 0 1-1.145-.968c-.304-.386-.553-.892-.747-1.518-.195-.627-.292-1.35-.292-2.168 0-1.166.375-2.159 1.124-2.978-.35-.877-.318-1.86.1-2.949.275-.087.682-.021 1.223.195.54.217.936.403 1.188.557.251.154.453.284.605.39a9.949 9.949 0 0 1 2.73-.376c.94 0 1.85.126 2.732.376l.541-.347a7.6 7.6 0 0 1 1.309-.636c.502-.192.887-.245 1.152-.159.427 1.09.465 2.072.114 2.95.749.818 1.124 1.81 1.124 2.977 0 .819-.098 1.544-.292 2.175-.194.632-.445 1.137-.754 1.518a3.99 3.99 0 0 1-1.152.961c-.46.26-.906.448-1.337.564a9.601 9.601 0 0 1-1.458.26c.493.434.74 1.118.74 2.053v3.05c0 .173.059.318.177.433.119.116.306.15.562.101 2.2-.742 3.995-2.079 5.384-4.01 1.39-1.933 2.084-4.108 2.084-6.527 0-2.014-.489-3.871-1.465-5.572z"/>
</svg>
